<?xml version="1.0" encoding="UTF-8"?>
<svg xmlns="http://www.w3.org/2000/svg" version="1.1" viewBox="0 0 36.6 45">
  <defs>
    <style>
      .cls-1 {
        fill: #2c2c2c;
      }

      .cls-2 {
        fill: #fff;
      }

      .cls-3 {
        isolation: isolate;
      }

      .cls-4 {
        fill: #185abd;
      }
    </style>
  </defs>
  <!-- Generator: Adobe Illustrator 28.7.8, SVG Export Plug-In . SVG Version: 1.2.0 Build 200)  -->
  <g>
    <g id="doc">
      <g>
        <path id="path890" class="cls-4" d="M4.6,0C2.1,0,0,2.1,0,4.6v35.7C0,42.9,2.1,45,4.6,45h27.3c2.6,0,4.6-2.1,4.6-4.6V11s0-.9-.3-1.7c-.3-.8-.9-1.3-.9-1.3h0l-6.8-6.7h0s-.6-.6-1.4-.9C26.2,0,25.1,0,25.1,0H4.6Z"/>
        <path id="rect2684" class="cls-2" d="M4.6,1.5h20.5s.8,0,1.4.3c.6.3,1,.6,1,.6h0l6.8,6.6s.4.4.6.9c.2.3.2,1,.2,1v29.4c0,1.7-1.4,3.1-3.1,3.1H4.6c-1.7,0-3.1-1.4-3.1-3.1V4.6c0-1.7,1.4-3.1,3.1-3.1h0Z"/>
      </g>
      <g>
        <g class="cls-3">
          <path class="cls-4" d="M13.6,24l3.9-14.9h1.8l3.9,14.9,3.4-14.9h2.8l-4.6,19h-2.7l-3.5-13.2-3.7,13.2h-2.7L7.5,9.1h2.8l3.4,14.9h0Z"/>
        </g>
        <g>
          <g class="cls-3">
            <path class="cls-1" d="M9.9,39.4v-7.6h1v7.7h-1ZM10.6,39.4v-1h1.7c.5,0,.9-.2,1.3-.5.3-.3.5-.7.5-1.2v-2.3c0-.5-.2-.9-.5-1.2s-.7-.5-1.3-.5h-1.7v-1h1.6c.9,0,1.6.2,2.1.7.5.5.7,1.2.7,2v2.2c0,.6-.1,1.1-.3,1.5s-.5.7-.9.9-.9.3-1.5.3h-1.7Z"/>
            <path class="cls-1" d="M18.4,39.5c-.5,0-1,0-1.4-.4-.4-.2-.7-.6-.9-1s-.3-.9-.3-1.5v-2.2c0-.6.1-1.1.3-1.5s.5-.7.9-1,.9-.4,1.4-.4,1,.1,1.4.4c.4.2.7.6.9,1s.3.9.3,1.5v2.2c0,.6-.1,1.1-.3,1.5s-.5.7-.9,1c-.4.2-.8.4-1.4.4ZM18.4,38.5c.5,0,.8-.2,1.1-.5s.4-.7.4-1.3v-2.3c0-.5-.1-.9-.4-1.3s-.7-.5-1.1-.5-.8.2-1.1.5c-.3.3-.4.7-.4,1.3v2.3c0,.5.1.9.4,1.3s.7.5,1.1.5Z"/>
          </g>
          <g class="cls-3">
            <path class="cls-1" d="M24.4,39.5c-.5,0-.9,0-1.4-.4-.4-.2-.7-.6-.9-1s-.3-.9-.3-1.5v-2.1c0-.6.1-1.1.3-1.5.2-.4.5-.8.9-1s.8-.4,1.4-.4.8,0,1.2.3c.4.2.7.5.9.8.2.3.4.7.5,1.2h-1.1c0-.2-.2-.5-.3-.7-.2-.2-.3-.3-.5-.4s-.4-.2-.6-.2c-.5,0-.8.2-1.1.5-.3.3-.4.8-.4,1.3v2.1c0,.5.1,1,.4,1.3s.7.6,1.1.6.6,0,.9-.3.5-.5.6-.9h1.1c0,.5-.2.9-.5,1.2-.2.3-.5.6-.9.8-.3.2-.7.3-1.2.3h-.1Z"/>
          </g>
        </g>
      </g>
    </g>
  </g>
</svg>