<?xml version="1.0" encoding="UTF-8"?>
<svg xmlns="http://www.w3.org/2000/svg" version="1.1" viewBox="0 0 36.6 45">
  <defs>
    <style>
      .cls-1 {
        font-family: MyriadPro-Semibold, 'Myriad Pro';
        font-size: 12px;
        font-weight: 600;
      }

      .cls-2 {
        fill: #4c9215;
      }

      .cls-3 {
        fill: #fff;
      }

      .cls-4 {
        isolation: isolate;
      }
    </style>
  </defs>
  <!-- Generator: Adobe Illustrator 28.7.8, SVG Export Plug-In . SVG Version: 1.2.0 Build 200)  -->
  <g>
    <g id="_喇뒨쏛_1" data-name="喇뒨쏛_1">
      <g id="_喇뒨쏛_1-2" data-name="_喇뒨쏛_1">
        <g class="cls-4">
          <g id="_喇뒨쏛_1-2">
            <g id="doc">
              <g id="g876">
                <path id="path890" class="cls-2" d="M4.6,0C2.1,0,0,2.1,0,4.6v35.7c0,2.6,2.1,4.7,4.6,4.7h27.3c2.6,0,4.6-2.1,4.6-4.6V11s0-.9-.3-1.7-.9-1.3-.9-1.3h0l-6.8-6.7h0s-.6-.6-1.4-.9c-.9-.4-2-.4-2-.4H4.6Z"/>
                <path id="rect2684" class="cls-3" d="M4.6,1.5h20.5s.8,0,1.4.3,1,.6,1,.6h0l6.8,6.6s.4.4.6.9c.2.3.2,1,.2,1v29.4c0,1.7-1.4,3.1-3.1,3.1H4.6c-1.7,0-3.1-1.4-3.1-3.1V4.6c0-1.7,1.4-3.1,3.1-3.1h0Z"/>
                <g>
                  <path class="cls-2" d="M7,10.7v12.7c0,.7.5,1.2,1.2,1.2h19s0,0,0,0,0,0,0,0h1.3c.7,0,1.2-.5,1.2-1.2v-12.7c0-.7-.5-1.2-1.2-1.2H8.2c-.7,0-1.2.5-1.2,1.2ZM19.3,19.7s0,0,0,0h0s2.2-3,2.2-3l4.5,6.7h-9.5l2.7-3.7ZM15.2,23.4h-6l5.7-7.7,3.3,3.7-3,4ZM28.5,10.7v12.7s0,0,0,0h-1l-5.4-7.9c-.1-.2-.3-.2-.5-.2-.2,0-.4,0-.5.2l-2.2,3-3.6-4.1c-.1-.1-.3-.2-.4-.2-.2,0-.3,0-.4.2l-6.3,8.5v-12.3s0,0,0,0h20.3s0,0,0,0Z"/>
                  <path class="cls-2" d="M25.3,15.3c1,0,1.7-.8,1.7-1.7s-.8-1.7-1.7-1.7-1.7.8-1.7,1.7.8,1.7,1.7,1.7ZM25.3,13c.3,0,.6.3.6.6s-.3.6-.6.6-.6-.3-.6-.6.3-.6.6-.6Z"/>
                </g>
                <text class="cls-1" transform="translate(8.6 40.2)"><tspan x="0" y="0">JPG</tspan></text>
              </g>
            </g>
          </g>
        </g>
      </g>
    </g>
  </g>
</svg>