<?xml version="1.0" encoding="UTF-8"?>
<svg xmlns="http://www.w3.org/2000/svg" version="1.1" xmlns:xlink="http://www.w3.org/1999/xlink" viewBox="0 0 36.6 30">
  <defs>
    <style>
      .cls-1 {
        fill: url(#New_Gradient_Swatch_copy_72);
      }

      .cls-2 {
        fill: none;
      }

      .cls-3 {
        fill: url(#New_Gradient_Swatch_copy_72-2);
      }

      .cls-4 {
        fill: url(#New_Gradient_Swatch_copy_93);
      }

      .cls-5 {
        fill: url(#New_Gradient_Swatch_copy_93-2);
      }
    </style>
    <linearGradient id="New_Gradient_Swatch_copy_93" data-name="New Gradient Swatch copy 93" x1="24.9" y1="18.7" x2="10.2" y2="4.1" gradientUnits="userSpaceOnUse">
      <stop offset="0" stop-color="#a5a7ab"/>
      <stop offset="1" stop-color="#5a5b5c"/>
    </linearGradient>
    <linearGradient id="New_Gradient_Swatch_copy_93-2" data-name="New Gradient Swatch copy 93" x1="21.7" y1="8.2" x2="1.5" y2="28.5" xlink:href="#New_Gradient_Swatch_copy_93"/>
    <linearGradient id="New_Gradient_Swatch_copy_72" data-name="New Gradient Swatch copy 72" x1="13.7" y1="16.4" x2="30.3" y2="16.4" gradientUnits="userSpaceOnUse">
      <stop offset="0" stop-color="#25a9e0"/>
      <stop offset="1" stop-color="#2a378f"/>
    </linearGradient>
    <linearGradient id="New_Gradient_Swatch_copy_72-2" data-name="New Gradient Swatch copy 72" x1="16.3" y1="11.6" x2="48.1" y2="11.6" xlink:href="#New_Gradient_Swatch_copy_72"/>
  </defs>
  <!-- Generator: Adobe Illustrator 28.7.8, SVG Export Plug-In . SVG Version: 1.2.0 Build 200)  -->
  <g>
    <g id="_圖層_1" data-name="圖層_1">
      <g>
        <path class="cls-4" d="M11.9,11h0c1-1,2.2-1.5,3.5-1.5s2.6.5,3.5,1.5h0c.9.9,1.5,2.2,1.5,3.5s-.5,2.6-1.5,3.5l-.2.2c.7.6,1.5.9,2.4.9s.3,0,.4,0c1-1.3,1.5-2.9,1.5-4.6s-.6-3.3-1.6-4.7c-3-1.8-7-1.5-9.6,1.2Z"/>
        <path class="cls-5" d="M21.5,9.8c-.2-.3-.4-.5-.7-.8h0c-3-3-7.9-3-10.9,0l-7.7,7.7C.8,18.2,0,20.1,0,22.2c0,2.1.8,4,2.3,5.4,1.5,1.5,3.4,2.3,5.4,2.3s4-.8,5.4-2.3l4-4c-.8-.4-1.6-.9-2.3-1.6l-3.7,3.7c-1.9,1.9-5.1,1.9-7,0-.9-.9-1.5-2.2-1.5-3.5s.5-2.6,1.5-3.5l7.7-7.7h0c2.6-2.6,6.6-3,9.6-1.2Z"/>
        <polygon class="cls-2" points="24.7 19 24.7 19 24.7 19 24.7 19"/>
        <path class="cls-1" d="M24.7,19c-1.9,1.9-5.1,1.9-7,0-.9-.9-1.5-2.2-1.5-3.5s.5-2.6,1.5-3.5l.2-.2c-.7-.6-1.5-.9-2.4-.9s-.3,0-.4,0c-1,1.3-1.5,2.9-1.5,4.6s.8,4,2.3,5.4c.4.4.8.7,1.3,1,2.8.2,5.6-.8,7.7-2.9Z"/>
        <path class="cls-3" d="M34.3,2.4h0C32.8.9,30.9.1,28.9.1s-4,.8-5.4,2.3l-4,4c.8.4,1.6.9,2.3,1.6l3.7-3.7c.9-.9,2.2-1.5,3.5-1.5s2.6.5,3.5,1.5h0c.9.9,1.5,2.2,1.5,3.5s-.5,2.6-1.5,3.5l-7.7,7.7s0,0,0,0c-2.1,2.1-4.9,3.1-7.7,2.9,1.3.8,2.7,1.2,4.2,1.2s3.9-.7,5.4-2.2l7.7-7.7c1.5-1.5,2.3-3.4,2.3-5.4s-.8-4-2.3-5.4Z"/>
      </g>
    </g>
  </g>
</svg>