<?xml version="1.0" encoding="UTF-8"?>
<svg xmlns="http://www.w3.org/2000/svg" version="1.1" viewBox="0 0 36.6 45">
  <defs>
    <style>
      .cls-1 {
        fill: #ff2116;
      }

      .cls-2 {
        fill: #2c2c2c;
      }

      .cls-3 {
        fill: #fff;
      }
    </style>
  </defs>
  <!-- Generator: Adobe Illustrator 28.7.8, SVG Export Plug-In . SVG Version: 1.2.0 Build 200)  -->
  <g>
    <g id="doc">
      <g id="g876">
        <path id="path890" class="cls-1" d="M4.6,0C2.1,0,0,2.1,0,4.6v35.7C0,42.9,2.1,45,4.6,45h27.3c2.6,0,4.6-2.1,4.6-4.6V11s0-.9-.3-1.7c-.3-.8-.9-1.3-.9-1.3h0l-6.8-6.7h0s-.6-.6-1.4-.9C26.2,0,25.1,0,25.1,0H4.6Z"/>
        <path id="rect2684" class="cls-3" d="M4.6,1.5h20.5s.8,0,1.4.3c.6.3,1,.6,1,.6h0l6.8,6.6s.4.4.6.9c.2.3.2,1,.2,1v29.4c0,1.7-1.4,3.1-3.1,3.1H4.6c-1.7,0-3.1-1.4-3.1-3.1V4.6c0-1.7,1.4-3.1,3.1-3.1h0Z"/>
        <path id="path2697" class="cls-1" d="M7.3,27.9c-1.2-1.2,0-3,3.8-4.9l2.3-1.1.9-2c.5-1.1,1.2-2.9,1.6-4l.7-2-.5-1.5c-.6-1.8-.9-4.5-.5-5.5.6-1.3,2.3-1.2,3.1.2.6,1.1.5,3.1-.2,5.6l-.5,2.1.5.8c.3.5,1,1.5,1.7,2.3l1.2,1.5,1.5-.2c4.9-.7,6.6.5,6.6,2s-3.9,2.2-7.2-.2c-.7-.5-1.2-1-1.2-1,0,0-2.1.4-3.1.7-1,.3-1.5.5-3.1,1,0,0-.5.8-.9,1.3-1.3,2.1-2.8,3.8-3.9,4.5-1.2.7-2.5.7-3.1.1ZM9.3,27.1c.7-.4,2.2-2.1,3.1-3.7l.4-.6-1.8.9c-2.8,1.5-4.1,2.8-3.4,3.6.3.4.8.3,1.7-.2h0ZM27.6,22c.7-.5.6-1.5-.2-1.8-.6-.3-1.1-.3-2.6-.3-1,0-2.5.3-2.8.3,0,0,.9.6,1.2.8.5.3,1.8.8,2.6,1.1.9.3,1.4.3,1.8,0h0ZM20.3,18.9c-.4-.5-1.1-1.3-1.6-2.1-.6-.8-.9-1.3-.9-1.3,0,0-.4,1.4-.8,2.2l-1.1,2.8-.3.6s1.7-.6,2.6-.8c.9-.3,2.8-.6,2.8-.6l-.7-.8ZM17.9,9.4c0-.9.2-1.8-.2-2.3-.8-.9-1.8-.2-1.6,1.9,0,.7.2,1.9.5,2.6l.4,1.3.3-1c.2-.4.5-1.7.6-2.5h0Z"/>
        <g id="g858">
          <path id="path845" class="cls-2" d="M10.3,32h2c.6,0,1.2,0,1.5.2.4,0,.7.4,1,.8.3.4.4.9.4,1.5s0,1-.3,1.4c-.2.4-.5.7-.9.8-.3.2-.9.3-1.7.3h-.7v3.3h-1.3v-8.3ZM11.6,33v2.9h.6c.6,0,1,0,1.2-.3.3-.2.3-.6.3-1.1s0-.7-.2-.9c-.1-.3-.3-.3-.5-.4-.2,0-.4,0-.9,0h-.6Z"/>
          <path id="path847" class="cls-2" d="M16.3,32h1.8c.9,0,1.5.2,2.1.5.5.3.9.8,1.2,1.5.3.6.4,1.3.4,2.1s0,1.5-.3,2.2-.6,1.1-1.1,1.5c-.5.4-1.2.6-2.1.6h-1.9v-8.3h0ZM17.6,33v6.1h.6c.7,0,1.3-.3,1.7-.8.3-.6.5-1.3.5-2.2,0-2-.7-3.1-2.2-3.1h-.6Z"/>
          <path id="path849" class="cls-2" d="M23,32h4.4v1.1h-3.1v2.5h2.5v1.1h-2.5v3.6h-1.3v-8.3Z"/>
        </g>
      </g>
    </g>
  </g>
</svg>